<?xml version="1.0" encoding="UTF-8" standalone="no"?>
<!-- Created with Inkscape (http://www.inkscape.org/) -->

<svg
   xmlns:dc="http://purl.org/dc/elements/1.1/"
   xmlns:cc="http://creativecommons.org/ns#"
   xmlns:rdf="http://www.w3.org/1999/02/22-rdf-syntax-ns#"
   xmlns:svg="http://www.w3.org/2000/svg"
   xmlns="http://www.w3.org/2000/svg"
   xmlns:sodipodi="http://sodipodi.sourceforge.net/DTD/sodipodi-0.dtd"
   xmlns:inkscape="http://www.inkscape.org/namespaces/inkscape"
   width="814.35999"
   height="744.09448"
   id="svg7098"
   version="1.1"
   inkscape:version="0.47 r22583"
   sodipodi:docname="obra.svg">
  <defs
     id="defs7100">
    <inkscape:perspective
       sodipodi:type="inkscape:persp3d"
       inkscape:vp_x="0 : 526.18109 : 1"
       inkscape:vp_y="0 : 1000 : 0"
       inkscape:vp_z="744.09448 : 526.18109 : 1"
       inkscape:persp3d-origin="372.04724 : 350.78739 : 1"
       id="perspective7106" />
    <inkscape:perspective
       id="perspective7089"
       inkscape:persp3d-origin="0.5 : 0.33333333 : 1"
       inkscape:vp_z="1 : 0.5 : 1"
       inkscape:vp_y="0 : 1000 : 0"
       inkscape:vp_x="0 : 0.5 : 1"
       sodipodi:type="inkscape:persp3d" />
    <inkscape:perspective
       id="perspective7286"
       inkscape:persp3d-origin="0.5 : 0.33333333 : 1"
       inkscape:vp_z="1 : 0.5 : 1"
       inkscape:vp_y="0 : 1000 : 0"
       inkscape:vp_x="0 : 0.5 : 1"
       sodipodi:type="inkscape:persp3d" />
    <filter
       color-interpolation-filters="sRGB"
       id="filter5500"
       inkscape:label="Drop shadow"
       width="1.5"
       height="1.5"
       x="-0.25"
       y="-0.25">
      <feGaussianBlur
         id="feGaussianBlur5502"
         in="SourceAlpha"
         stdDeviation="2,600000"
         result="blur" />
      <feColorMatrix
         id="feColorMatrix5504"
         result="bluralpha"
         type="matrix"
         values="1 0 0 0 0 0 1 0 0 0 0 0 1 0 0 0 0 0 0,504000 0 " />
      <feOffset
         id="feOffset5506"
         in="bluralpha"
         dx="0,600000"
         dy="0,600000"
         result="offsetBlur" />
      <feMerge
         id="feMerge5508">
        <feMergeNode
           id="feMergeNode5510"
           in="offsetBlur" />
        <feMergeNode
           id="feMergeNode5512"
           in="SourceGraphic" />
      </feMerge>
    </filter>
    <inkscape:perspective
       id="perspective7398"
       inkscape:persp3d-origin="0.5 : 0.33333333 : 1"
       inkscape:vp_z="1 : 0.5 : 1"
       inkscape:vp_y="0 : 1000 : 0"
       inkscape:vp_x="0 : 0.5 : 1"
       sodipodi:type="inkscape:persp3d" />
    <inkscape:perspective
       id="perspective7522"
       inkscape:persp3d-origin="0.5 : 0.33333333 : 1"
       inkscape:vp_z="1 : 0.5 : 1"
       inkscape:vp_y="0 : 1000 : 0"
       inkscape:vp_x="0 : 0.5 : 1"
       sodipodi:type="inkscape:persp3d" />
    <inkscape:perspective
       id="perspective7589"
       inkscape:persp3d-origin="0.5 : 0.33333333 : 1"
       inkscape:vp_z="1 : 0.5 : 1"
       inkscape:vp_y="0 : 1000 : 0"
       inkscape:vp_x="0 : 0.5 : 1"
       sodipodi:type="inkscape:persp3d" />
    <inkscape:perspective
       id="perspective7686"
       inkscape:persp3d-origin="0.5 : 0.33333333 : 1"
       inkscape:vp_z="1 : 0.5 : 1"
       inkscape:vp_y="0 : 1000 : 0"
       inkscape:vp_x="0 : 0.5 : 1"
       sodipodi:type="inkscape:persp3d" />
  </defs>
  <sodipodi:namedview
     id="base"
     pagecolor="#ffffff"
     bordercolor="#666666"
     borderopacity="1.0"
     inkscape:pageopacity="0.0"
     inkscape:pageshadow="2"
     inkscape:zoom="0.35"
     inkscape:cx="376.594"
     inkscape:cy="227.10549"
     inkscape:document-units="px"
     inkscape:current-layer="layer1"
     showgrid="false"
     width="1052.36px"
     inkscape:window-width="842"
     inkscape:window-height="816"
     inkscape:window-x="496"
     inkscape:window-y="51"
     inkscape:window-maximized="0" />
  <metadata
     id="metadata7103">
    <rdf:RDF>
      <cc:Work
         rdf:about="">
        <dc:format>image/svg+xml</dc:format>
        <dc:type
           rdf:resource="http://purl.org/dc/dcmitype/StillImage" />
        <dc:title></dc:title>
      </cc:Work>
    </rdf:RDF>
  </metadata>
  <g
     inkscape:label="Capa 1"
     inkscape:groupmode="layer"
     id="layer1"
     transform="translate(0,-308.2677)">
    <g
       transform="matrix(1.1288129,0,0,1.1288129,-307.23338,851.14364)"
       id="g5626">
      <g
         transform="matrix(1.1202381,0,0,1.1202381,1136.4739,-1035.7632)"
         id="g5574">
        <path
           id="path4482"
           d="m -184.85791,548.29607 -32.32489,45.45686 -53.53808,52.52793 -28.28427,35.35534 -42.42641,51.51778 5.05077,14.14214 41.41625,-36.36549 56.56854,-57.5787 40.4061,-46.46702 20.20305,-39.39595 -7.07106,-19.19289 z"
           style="fill:#808080;stroke:#000000;stroke-width:1px;stroke-linecap:butt;stroke-linejoin:miter;stroke-opacity:1" />
        <path
           id="path4465"
           d="m -482.98843,739.60758 -62.16912,18.23917 -30.65849,18.22102 -49.73166,-19.05501 -54.6994,27.34063 -31.51062,37.31234 3.31786,52.21553 33.16049,25.69074 47.2478,-4.98583 42.26195,-23.2069 -45.57981,62.16914 -13.27145,71.27059 11.60345,31.5106 22.39104,17.4051 26.50663,7.4517 38.96221,-14.0874 36.46022,-29.0086 45.59794,-50.56569 11.60345,-46.41381 -13.27145,-34.81035 -37.29422,-29.00863 23.20691,-14.08728 48.89766,-9.11962 2.48387,-13.25328 -53.0314,-15.75534 -72.10457,32.32651 -2.50199,-9.11961 33.16049,-23.2069 38.96221,-10.7694 0,-54.69942 z m -151.67886,50.54753 28.17463,6.63573 -0.834,14.92134 -9.93546,33.97629 -25.69076,23.20691 -29.84263,-3.31784 -12.43744,-20.7049 -1.64987,-17.40518 24.85677,-24.8749 27.35876,-12.43745 z m 121.83623,115.21861 16.57118,9.93546 9.11959,29.84268 -24.0409,28.17457 -36.46022,36.47837 -21.55704,17.4052 -17.40517,-6.6357 -15.73718,-6.6358 -7.46972,-14.92127 2.48386,-24.85674 13.27145,-22.37296 47.2478,-43.09592 33.97635,-3.31789 z"
           style="fill:#999999;stroke:#000000;stroke-width:0.58017254px;stroke-linecap:butt;stroke-linejoin:miter;stroke-opacity:1" />
        <path
           sodipodi:nodetypes="cscscscsscccscccccscccssssccccccssssccscccccsccccccccccccscccsscccscssccccccsscccscccccscccccc"
           id="path4463"
           d="m -610.20935,1069.0376 c -6.26064,-2.2885 -19.06679,-11.1515 -28.45746,-19.6953 -22.2676,-20.2591 -23.14598,-73.65677 -1.89716,-115.33549 8.34752,-16.37317 15.17731,-29.99133 15.17731,-30.26256 0,-0.27094 -13.88817,0.83133 -30.86286,2.45007 -42.16868,4.02152 -67.78968,-19.32735 -67.78968,-61.77834 0,-25.33927 5.17862,-35.20876 33.15048,-63.18079 36.41105,-36.41139 63.88454,-42.54846 94.49444,-21.10853 15.32874,10.73673 19.06679,10.8136 34.48894,0.7088 9.51309,-6.23326 32.41714,-15.63554 50.89738,-20.89393 27.24258,-7.75186 52.33794,-27.94105 132.6373,-106.70748 101.23257,-99.30059 150.01696,-131.88512 184.10673,-122.97048 9.72253,2.54261 18.83356,12.59253 21.67351,23.90752 9.25027,36.85587 -29.03822,91.10311 -144.81107,205.17031 -95.32351,93.91926 -112.24888,107.4675 -139.75022,111.86515 l -31.29102,5.00359 18.51562,14.56412 c 21.97578,17.2863 30.81007,55.14558 19.69106,84.38987 -11.29422,29.70629 -75.69047,96.70117 -104.71186,108.93727 -25.65581,10.8171 -36.51954,11.7875 -55.26144,4.9364 l 0,-2e-4 z m 104.34404,-66.8584 c 34.20639,-36.33537 39.84044,-46.56207 39.84044,-72.32057 0,-31.45208 -19.98752,-60.35541 -41.73761,-60.35541 -6.26064,0 -11.38298,-2.9967 -11.38298,-6.65945 0,-12.21182 18.63282,-21.92252 53.12059,-27.6845 30.74045,-5.13592 32.46008,-6.46666 17.22997,-13.33138 -40.4769,-18.24387 -142.64321,42.23407 -175.44443,109.99271 -26.62528,55.00024 -18.54786,108.6851 21.61864,121.4464 24.16825,7.6786 58.49416,-10.446 96.75538,-51.0878 z m -90.42338,23.7376 c -12.15461,-6.0247 -18.47269,-16.6189 -20.12908,-33.75269 -2.02771,-20.97857 2.9699,-30.35573 31.25331,-58.63908 27.34876,-27.34864 38.78918,-33.66718 60.95931,-33.66718 27.81927,0 43.00297,14.6757 43.00297,41.56385 0,15.47773 -64.1433,84.5867 -83.1132,89.5475 -7.84219,2.0507 -22.22989,-0.2231 -31.97331,-5.0524 z m 50.62354,-27.43879 c 51.27913,-40.75126 62.51533,-68.23995 34.10834,-83.44285 -19.45898,-10.41409 -34.8968,-2.22844 -70.84951,37.56716 -31.2655,34.60683 -32.74204,39.88495 -15.87816,56.74898 16.11951,16.1191 19.54485,15.4113 52.61933,-10.87329 z m -40.11752,-151.38993 c 25.53281,-25.3055 53.24044,-43.43299 67.65193,-48.38726 26.68619,-9.17421 29.3399,-19.47192 29.3399,-38.83831 0,-15.10462 -41.54234,-5.88939 -67.46909,17.8971 l -20.62928,12.4324 -20.46293,-8.49204 c -28.95003,-25.06908 -45.44318,-23.23841 -81.13307,9.00538 -33.77126,30.51 -40.3336,62.80634 -17.81768,87.68617 24.63413,27.22013 59.95876,18.80885 110.52022,-31.30344 z m -103.10503,13.95536 c -13.3109,-19.00437 -9.39242,-33.48339 16.70722,-61.73529 21.5656,-23.34441 47.29451,-26.87249 65.22358,-8.94371 17.99231,17.99237 14.38074,43.59196 -9.35934,66.33606 -25.84611,24.76257 -56.96424,26.62475 -72.57146,4.34294 z m 58.98788,-13.55585 c 39.555,-41.28641 7.10595,-73.73535 -34.18029,-34.1804 -25.41213,24.34647 -26.26673,28.09497 -10.09094,44.27099 16.17637,16.17608 19.92487,15.32166 44.27123,-10.09059 z m 133.68451,-44.846 c -6.82689,-2.39426 -53.28478,19.18943 -53.28478,24.75538 0,1.66973 13.50177,-2.68661 30.0042,-9.6807 16.50243,-6.99416 26.9786,-13.77771 23.28058,-15.07468 z m 117.24069,-23.97737 c 26.42048,-27.05711 34.34912,-29.56009 26.65893,-46.43847 -4.71042,-10.33734 -23.24229,-27.09788 -34.09152,-34.20662 -19.46943,-12.75683 -25.91805,-12.54437 -55.47378,16.31608 -24.28254,23.71147 -36.57614,37.90551 -36.57614,60.8431 0,23.30083 17.09925,32.18165 31.16438,34.8907 35.20428,6.7806 39.59727,-1.99219 68.31813,-31.40479 z m -53.97287,-19.25262 c -2.6392,-6.87708 0.18508,-17.48669 6.27515,-23.57717 15.18427,-15.1841 37.95953,-5.36039 35.03778,15.11338 -2.87766,20.17178 -34.34622,26.61866 -41.31293,8.46379 z m 29.52904,-6.90017 c 1.04315,-3.82589 -2.37174,-8.37908 -7.58865,-10.11815 -5.2175,-1.73913 -9.48583,2.52949 -9.48583,9.48582 0,12.85024 13.60505,13.35412 17.07448,0.6321 l 0,2.3e-4 z m 186.17497,-133.08404 c 8.70839,-12.52128 36.59993,-52.50382 32.60487,-48.33005 -3.99565,4.17376 -62.52777,65.62389 -95.63009,101.10086 l -56.04127,65.33242 50.78797,-45.18221 c 28.389,-27.12945 59.57013,-60.39973 68.27852,-72.92102 z m 4.15031,-35.53737 c 25.41678,-38.89169 34.04821,-68.36742 14.70294,-68.36742 -21.9839,0 -94.77463,50.70761 -146.92286,104.05413 l -59.97882,58.60404 38.76489,15.32816 30.47672,28.58927 45.76591,-55.47952 c 26.53941,-27.77866 65.06503,-64.17306 77.19122,-82.72866 z"
           style="fill:#000000" />
        <path
           style="fill:none;stroke:none"
           d="m -603.71166,1050.4472 c -32.78217,-11.1007 -43.44894,-56.4991 -24.66777,-104.98744 22.13769,-57.15407 99.40563,-118.84251 155.13985,-123.85908 14.4939,-1.30458 34.29167,2.93037 30.66292,6.55911 -0.85699,0.85699 -10.99959,3.463 -22.53911,5.79114 -38.19386,7.70575 -55.58326,17.03316 -53.35234,28.6174 0.64279,3.33772 5.70037,6.45451 14.51227,8.94334 21.65624,6.11657 36.04701,29.64952 36.30514,59.36911 0.19554,22.51447 -10.59923,40.65141 -44.03973,73.99372 -40.5576,40.4386 -67.6134,53.8377 -92.02123,45.5727 z m 45.65991,-21.5976 c 17.55589,-9.3014 70.51216,-65.91196 76.57545,-81.85961 3.32529,-8.7462 -1.73857,-28.42745 -9.45894,-36.76316 -3.16588,-3.41821 -11.78628,-7.66153 -19.15644,-9.42961 -27.06663,-6.49318 -52.43245,5.46238 -83.41565,39.3159 -25.35053,27.69904 -30.38242,48.3577 -17.77635,72.98178 7.52402,14.697 38.13084,23.7555 53.23193,15.7547 z"
           id="path5307" />
        <path
           style="fill:#ff6600;stroke:none"
           d="m -603.71166,1050.4472 c -32.78217,-11.1007 -43.44894,-56.4991 -24.66777,-104.98744 22.13769,-57.15407 99.40563,-118.84251 155.13985,-123.85908 14.4939,-1.30458 34.29167,2.93037 30.66292,6.55911 -0.85699,0.85699 -10.99959,3.463 -22.53911,5.79114 -38.19386,7.70575 -55.58326,17.03316 -53.35234,28.6174 0.64279,3.33772 5.70037,6.45451 14.51227,8.94334 21.65624,6.11657 36.04701,29.64952 36.30514,59.36911 0.19554,22.51447 -10.59923,40.65141 -44.03973,73.99372 -40.5576,40.4386 -67.6134,53.8377 -92.02123,45.5727 z m 45.65991,-21.5976 c 17.55589,-9.3014 70.51216,-65.91196 76.57545,-81.85961 3.32529,-8.7462 -1.73857,-28.42745 -9.45894,-36.76316 -3.16588,-3.41821 -11.78628,-7.66153 -19.15644,-9.42961 -27.06663,-6.49318 -52.43245,5.46238 -83.41565,39.3159 -25.35053,27.69904 -30.38242,48.3577 -17.77635,72.98178 7.52402,14.697 38.13084,23.7555 53.23193,15.7547 z"
           id="path5309" />
        <path
           style="fill:#ff6600;fill-opacity:1;fill-rule:evenodd;stroke:none"
           d="m -683.55797,886.88356 c -22.34877,-14.05457 -29.80643,-40.98137 -17.93412,-64.75337 7.57988,-15.17724 34.56023,-41.53126 51.21887,-50.02986 15.29338,-7.8021 25.06498,-7.10354 40.87361,2.92199 7.44157,4.71931 17.97729,10.4387 23.4127,12.70976 9.74052,4.06985 10.15981,3.94144 29.17209,-8.93396 26.00277,-17.60946 39.82096,-23.64742 54.28953,-23.72218 11.5417,-0.0596 12.14285,0.35239 12.14285,8.32268 0,16.81863 -4.52143,22.37699 -27.75472,34.11994 -26.0364,13.15973 -42.00189,24.73067 -77.68436,56.30151 -39.98343,35.37621 -67.5436,45.76226 -87.73645,33.06349 z m 40.84668,-12.03005 c 42.17213,-15.81792 61.7231,-64.21524 35.0183,-86.68584 -23.74129,-19.97699 -55.00848,-8.07912 -80.98246,30.81565 -21.39426,32.03687 9.47348,69.55711 45.96416,55.87019 z"
           id="path5311" />
      </g>
      <path
         style="fill:#ffffff;fill-opacity:1;fill-rule:evenodd;stroke:none"
         d="m -246.11265,559.76013 c -2.81237,-0.51139 -4.14416,-1.11273 -5.65429,-2.55306 -1.60368,-1.52956 -2.29573,-3.76197 -1.99607,-6.43888 0.38945,-3.47895 1.61984,-5.62151 5.6472,-9.83376 4.29567,-4.49289 7.4438,-7.11061 9.1975,-7.64786 1.57688,-0.48308 3.40738,0.17098 6.13159,2.19089 4.45883,3.30606 7.33782,6.88147 7.32653,9.09881 -0.008,1.51328 -0.41211,2.02632 -6.1453,7.79601 -5.4306,5.46519 -6.75082,6.60131 -8.42546,7.25057 -1.28999,0.50013 -3.77745,0.55628 -6.0817,0.13728 l 0,0 z m 8.38906,-9.3729 c 2.04921,-0.90646 3.12838,-2.48559 3.12494,-4.57267 -0.004,-2.60337 -1.67134,-4.28199 -4.24281,-4.27222 -2.78824,0.0106 -5.21171,2.52967 -5.23841,5.44508 -0.0174,1.90106 0.83317,3.09664 2.62157,3.68488 0.93183,0.3065 2.70301,0.1713 3.73471,-0.28507 z"
         id="path5622"
         transform="matrix(5.043778,0,0,5.043778,1881.3596,-2951.2825)" />
      <path
         style="fill:#ffffff;fill-opacity:1;fill-rule:evenodd;stroke:none"
         d="m -225.77052,536.80949 -3.35379,-3.1376 -4.04382,-1.5691 c -2.22411,-0.86301 -4.10254,-1.62176 -4.17431,-1.68612 -0.1631,-0.14627 16.39321,-16.32225 19.75359,-19.2998 4.77602,-4.23192 9.42603,-7.85136 14.05285,-10.93834 9.66309,-6.44714 13.96218,-7.44277 13.9647,-3.23411 0.002,2.9566 -3.39378,9.88725 -7.1246,14.542 -0.81825,1.02088 -4.49016,4.91881 -8.1598,8.66206 -5.94262,6.06182 -7.25053,7.50576 -11.96308,13.2074 -2.91005,3.52083 -5.36007,6.44419 -5.44448,6.49636 -0.0844,0.0522 -1.66268,-1.31707 -3.50726,-3.04275 l 0,0 z"
         id="path5624"
         transform="matrix(5.043778,0,0,5.043778,1881.3596,-2951.2825)" />
    </g>
  </g>
</svg>
